<?xml version="1.0" encoding="UTF-8" standalone="no"?> <svg width="512" height="512" viewBox="0 0 512 512" fill="none" xmlns="http://www.w3.org/2000/svg">
<path d="M469.75 384H464V232C464 227.582 460.418 224 456 224H384V72C384 67.582 380.418 64 376 64H216C211.582 64 208 67.582 208 72V224H136C131.582 224 128 227.582 128 232V384H112V56C112 33.944 94.056 16 72 16H24C19.582 16 16 19.582 16 24V56C16 60.418 19.582 64 24 64H64V440C64 444.418 67.582 448 72 448H128.581C132.476 475.101 155.838 496 184 496C212.162 496 235.525 475.101 239.419 448H328.58C332.475 475.101 355.837 496 383.999 496C412.161 496 435.524 475.101 439.418 448H469.749C484.224 448 495.999 436.224 495.999 421.75V410.25C496 395.776 484.225 384 469.75 384ZM96 432H80V56C80 51.582 76.418 48 72 48H32V32H72C85.233 32 96 42.766 96 56V432ZM388.422 287.155C389.552 287.72 390.777 288 392 288C393.462 288 394.921 287.599 396.206 286.805C398.564 285.347 400 282.772 400 280V240H448V384H304V240H352V280C352 282.772 353.436 285.348 355.794 286.805C358.153 288.263 361.096 288.395 363.578 287.155L376 280.944L388.422 287.155ZM384 240V267.056L379.578 264.845C378.451 264.282 377.226 264 376 264C374.774 264 373.549 264.282 372.422 264.845L368 267.056V240H384ZM288 80H304V107.056L299.578 104.845C298.451 104.282 297.226 104 296 104C294.774 104 293.549 104.282 292.422 104.845L288 107.056V80ZM224 80H272V120C272 122.772 273.436 125.348 275.794 126.805C278.153 128.263 281.097 128.395 283.578 127.155L296 120.944L308.422 127.155C309.552 127.72 310.777 128 312 128C313.462 128 314.921 127.599 316.206 126.805C318.564 125.347 320 122.772 320 120V80H368V224H224V80ZM208 240H224V267.056L219.578 264.845C218.451 264.282 217.226 264 216 264C214.774 264 213.549 264.282 212.422 264.845L208 267.056V240ZM144 240H192V280C192 282.772 193.436 285.348 195.794 286.805C198.153 288.263 201.097 288.395 203.578 287.155L216 280.944L228.422 287.155C229.552 287.72 230.777 288 232 288C233.462 288 234.921 287.599 236.206 286.805C238.564 285.347 240 282.772 240 280V240H288V384H144V240ZM128.581 432H112V400H144.862C136.271 408.407 130.37 419.546 128.581 432ZM184 480C161.944 480 144 462.056 144 440C144 417.944 161.944 400 184 400C206.056 400 224 417.944 224 440C224 462.056 206.056 480 184 480ZM328.581 432H239.42C237.63 419.546 231.73 408.407 223.139 400H344.862C336.271 408.407 330.37 419.546 328.581 432ZM384 480C361.944 480 344 462.056 344 440C344 417.944 361.944 400 384 400C406.056 400 424 417.944 424 440C424 462.056 406.056 480 384 480ZM480 421.75C480 427.402 475.402 432 469.75 432H439.419C437.629 419.546 431.729 408.407 423.138 400H469.75C475.402 400 480 404.598 480 410.25V421.75Z" fill="black"/>
<path d="M184 416C170.767 416 160 426.766 160 440C160 453.234 170.767 464 184 464C197.233 464 208 453.234 208 440C208 426.766 197.233 416 184 416ZM184 448C179.589 448 176 444.411 176 440C176 435.589 179.589 432 184 432C188.411 432 192 435.589 192 440C192 444.411 188.411 448 184 448Z" fill="black"/>
<path d="M384 416C370.767 416 360 426.766 360 440C360 453.234 370.767 464 384 464C397.233 464 408 453.234 408 440C408 426.766 397.233 416 384 416ZM384 448C379.589 448 376 444.411 376 440C376 435.589 379.589 432 384 432C388.411 432 392 435.589 392 440C392 444.411 388.411 448 384 448Z" fill="black"/>
<path d="M192 360C192 355.582 188.418 352 184 352H168C163.582 352 160 355.582 160 360C160 364.418 163.582 368 168 368H184C188.418 368 192 364.418 192 360Z" fill="black"/>
<path d="M344 352H328C323.582 352 320 355.582 320 360C320 364.418 323.582 368 328 368H344C348.418 368 352 364.418 352 360C352 355.582 348.418 352 344 352Z" fill="black"/>
<path d="M232 360C227.582 360 224 363.582 224 368C224 372.418 227.582 376 232 376H264C268.418 376 272 372.418 272 368C272 363.582 268.418 360 264 360H256V350.624C265.311 347.322 272 338.43 272 328V312C272 307.582 268.418 304 264 304H232C227.582 304 224 307.582 224 312V328C224 338.429 230.689 347.321 240 350.624V360H232ZM240 320H256V328C256 332.411 252.411 336 248 336C243.589 336 240 332.411 240 328V320Z" fill="black"/>
<path d="M392 304C387.582 304 384 307.582 384 312V328C384 338.429 390.689 347.321 400 350.624V360H392C387.582 360 384 363.582 384 368C384 372.418 387.582 376 392 376H424C428.418 376 432 372.418 432 368C432 363.582 428.418 360 424 360H416V350.624C425.311 347.322 432 338.43 432 328V312C432 307.582 428.418 304 424 304H392ZM416 328C416 332.411 412.411 336 408 336C403.589 336 400 332.411 400 328V320H416V328Z" fill="black"/>
<path d="M248 208H264C268.418 208 272 204.418 272 200C272 195.582 268.418 192 264 192H248C243.582 192 240 195.582 240 200C240 204.418 243.582 208 248 208Z" fill="black"/>
<path d="M312 200C307.582 200 304 203.582 304 208C304 212.418 307.582 216 312 216H344C348.418 216 352 212.418 352 208C352 203.582 348.418 200 344 200H336V190.624C345.311 187.322 352 178.429 352 168V152C352 147.582 348.418 144 344 144H312C307.582 144 304 147.582 304 152V168C304 178.429 310.689 187.321 320 190.624V200H312ZM320 160H336V168C336 172.411 332.411 176 328 176C323.589 176 320 172.411 320 168V160Z" fill="black"/>
</svg>
